SO_states
version=1
nRows=14
nColumns=49
inDegrees=yes
endheader
time	/jointset/bb/crank_angle/value	/jointset/bb/crank_angle/speed	/jointset/spindle/pedal_angle_r/value	/jointset/spindle/pedal_angle_r/speed	/jointset/ground_pelvis/pelvis_tilt/value	/jointset/ground_pelvis/pelvis_tilt/speed	/jointset/ground_pelvis/pelvis_list/value	/jointset/ground_pelvis/pelvis_list/speed	/jointset/ground_pelvis/pelvis_rotation/value	/jointset/ground_pelvis/pelvis_rotation/speed	/jointset/ground_pelvis/pelvis_tx/value	/jointset/ground_pelvis/pelvis_tx/speed	/jointset/ground_pelvis/pelvis_ty/value	/jointset/ground_pelvis/pelvis_ty/speed	/jointset/ground_pelvis/pelvis_tz/value	/jointset/ground_pelvis/pelvis_tz/speed	/jointset/hip_r/hip_angle_r/value	/jointset/hip_r/hip_angle_r/speed	/jointset/hip_r/hip_adduction_r/value	/jointset/hip_r/hip_adduction_r/speed	/jointset/hip_r/hip_rotation_r/value	/jointset/hip_r/hip_rotation_r/speed	/jointset/knee_r/knee_angle_r/value	/jointset/knee_r/knee_angle_r/speed	/jointset/knee_r/tib_tx_r/value	/jointset/knee_r/tib_tx_r/speed	/jointset/knee_r/tib_ty_r/value	/jointset/knee_r/tib_ty_r/speed	/jointset/tib_pat_r/pat_angle_r/value	/jointset/tib_pat_r/pat_angle_r/speed	/jointset/tib_pat_r/pat_tx_r/value	/jointset/tib_pat_r/pat_tx_r/speed	/jointset/tib_pat_r/pat_ty_r/value	/jointset/tib_pat_r/pat_ty_r/speed	/jointset/ankle_r/ankle_angle_r/value	/jointset/ankle_r/ankle_angle_r/speed	/jointset/subtalar_r/subtalar_angle_r/value	/jointset/subtalar_r/subtalar_angle_r/speed	/jointset/mtp_r/mtp_angle_r/value	/jointset/mtp_r/mtp_angle_r/speed	/forceset/bifemlh_r/activation	/forceset/bifemlh_r/fiber_length	/forceset/bifemsh_r/activation	/forceset/bifemsh_r/fiber_length	/forceset/glut_max2_r/activation	/forceset/glut_max2_r/fiber_length	/forceset/vas_int_r/activation	/forceset/vas_int_r/fiber_length
      0.43201017	   -252.47121207	   -480.13862800	    233.71871825	    361.74138670	     -0.03461327	      0.00000000	      0.05155677	      0.00000000	      0.01837762	      0.00000000	     -0.10000000	      0.00000000	     -0.05000000	      0.00000000	      0.00000000	      0.00000000	     50.05524339	    126.40394613	      4.23728626	     -1.76783214	     -1.61585683	    -21.19408582	    -90.96876098	   -273.62336261	      0.00369077	     -0.03899730	     -0.48627210	     -0.09491466	     17.57012164	      0.97938608	      0.03238756	     -0.10566088	     -0.02273601	     -0.01069664	     22.71728912	     30.15823547	      0.00000000	      0.00000000	      0.00000000	      0.00000000	      0.05000000	      0.10000000	      0.05000000	      0.10000000	      0.05000000	      0.10000000	      0.05000000	      0.10000000
      0.43246729	   -252.69060380	   -480.13863034	    233.88417551	    362.38428861	     -0.03464515	      0.00000000	      0.05153977	      0.00000000	      0.01836522	      0.00000000	     -0.10000000	     -0.00000000	     -0.05000000	     -0.00000000	      0.00000000	     -0.00000000	     50.11312233	    126.62213871	      4.23653377	     -1.77341182	     -1.62567650	    -21.19020178	    -91.09390008	   -273.37419592	      0.00367292	     -0.03923005	     -0.48631552	     -0.09484935	     17.57056972	      0.98434299	      0.03233923	     -0.10569728	     -0.02274090	     -0.01076324	     22.73127119	     30.33666677	      0.00000000	      0.00000000	      0.00000000	      0.00000000	      0.05000000	      0.10000000	      0.05000000	      0.10000000	      0.05000000	      0.10000000	      0.05000000	      0.10000000
      0.43292441	   -252.90999613	   -480.13862565	    234.04992921	    363.02888754	     -0.03467711	      0.00000000	      0.05152332	      0.00000000	      0.01835283	      0.00000000	     -0.10000000	     -0.00000000	     -0.05000000	     -0.00000000	      0.00000000	     -0.00000000	     50.17110023	    126.84030559	      4.23577845	     -1.77896341	     -1.63549373	    -21.18625209	    -91.21892389	   -273.12295802	      0.00365498	     -0.03943077	     -0.48635889	     -0.09475534	     17.57102006	      0.98913848	      0.03229089	     -0.10571755	     -0.02274583	     -0.01082892	     22.74533622	     30.51474279	      0.00000000	      0.00000000	      0.00000000	      0.00000000	      0.05000000	      0.10000000	      0.05000000	      0.10000000	      0.05000000	      0.10000000	      0.05000000	      0.10000000
      0.43338152	   -253.12938426	   -480.13864541	    234.21597648	    363.67522005	     -0.03470915	      0.00000000	      0.05150742	      0.00000000	      0.01834046	      0.00000000	     -0.10000000	      0.00000000	     -0.05000000	      0.00000000	      0.00000000	      0.00000000	     50.22917581	    127.05840444	      4.23502034	     -1.78450016	     -1.64530829	    -21.18225288	    -91.34382872	   -272.86959969	      0.00363693	     -0.03963767	     -0.48640223	     -0.09467070	     17.57147258	      0.99385956	      0.03224254	     -0.10573675	     -0.02275078	     -0.01089394	     22.75948375	     30.69247334	      0.00000000	      0.00000000	      0.00000000	      0.00000000	      0.05000000	      0.10000000	      0.05000000	      0.10000000	      0.05000000	      0.10000000	      0.05000000	      0.10000000
      0.43383864	   -253.34877777	   -480.13864263	    234.38232538	    364.32331555	     -0.03474129	      0.00000000	      0.05149205	      0.00000000	      0.01832810	      0.00000000	     -0.10000000	     -0.00000000	     -0.05000000	     -0.00000000	      0.00000000	     -0.00000000	     50.28735160	    127.27652034	      4.23425944	     -1.78995477	     -1.65512057	    -21.17818451	    -91.46861909	   -272.61412541	      0.00361879	     -0.03985761	     -0.48644552	     -0.09458170	     17.57192725	      0.99841420	      0.03219418	     -0.10577006	     -0.02275577	     -0.01096117	     22.77371422	     30.86980791	      0.00000000	      0.00000000	      0.00000000	      0.00000000	      0.05000000	      0.10000000	      0.05000000	      0.10000000	      0.05000000	      0.10000000	      0.05000000	      0.10000000
      0.43429576	   -253.56817187	   -480.13862402	    234.54897306	    364.97307290	     -0.03477352	      0.00000000	      0.05147722	      0.00000000	      0.01831577	      0.00000000	     -0.10000000	     -0.00000000	     -0.05000000	     -0.00000000	      0.00000000	     -0.00000000	     50.34562633	    127.49459796	      4.23349578	     -1.79541388	     -1.66493035	    -21.17408776	    -91.59329129	   -272.35656183	      0.00360056	     -0.04008065	     -0.48648878	     -0.09449100	     17.57238401	      1.00283641	      0.03214580	     -0.10580770	     -0.02276078	     -0.01102248	     22.78802716	     31.04679006	      0.00000000	      0.00000000	      0.00000000	      0.00000000	      0.05000000	      0.10000000	      0.05000000	      0.10000000	      0.05000000	      0.10000000	      0.05000000	      0.10000000
      0.43475288	   -253.78756655	   -480.13863072	    234.71592029	    365.62458225	     -0.03480583	      0.00000000	      0.05146291	      0.00000000	      0.01830347	      0.00000000	     -0.10000000	      0.00000000	     -0.05000000	      0.00000000	      0.00000000	      0.00000000	     50.40399998	    127.71260766	      4.23272937	     -1.80081596	     -1.67473759	    -21.16988112	    -91.71784437	   -272.09687970	      0.00358222	     -0.04028387	     -0.48653199	     -0.09441366	     17.57284278	      1.00716787	      0.03209741	     -0.10582396	     -0.02276583	     -0.01109849	     22.80242239	     31.22339685	      0.00000000	      0.00000000	      0.00000000	      0.00000000	      0.05000000	      0.10000000	      0.05000000	      0.10000000	      0.05000000	      0.10000000	      0.05000000	      0.10000000
      0.43521000	   -254.00696181	   -480.13862820	    234.88316786	    366.27781030	     -0.03483824	      0.00000000	      0.05144913	      0.00000000	      0.01829119	      0.00000000	     -0.10000000	     -0.00000000	     -0.05000000	     -0.00000000	      0.00000000	     -0.00000000	     50.46247253	    127.93064468	      4.23196024	     -1.80616724	     -1.68454226	    -21.16565254	    -91.84227736	   -271.83508845	      0.00356379	     -0.04049173	     -0.48657516	     -0.09429868	     17.57330352	      1.01135136	      0.03204901	     -0.10584812	     -0.02277090	     -0.01113717	     22.81689974	     31.39962069	      0.00000000	      0.00000000	      0.00000000	      0.00000000	      0.05000000	      0.10000000	      0.05000000	      0.10000000	      0.05000000	      0.10000000	      0.05000000	      0.10000000
      0.43566712	   -254.22635766	   -480.13862855	    235.05071653	    366.93271451	     -0.03487075	      0.00000000	      0.05143587	      0.00000000	      0.01827893	      0.00000000	     -0.10000000	      0.00000000	     -0.05000000	      0.00000000	      0.00000000	      0.00000000	     50.52104400	    128.14860671	      4.23118842	     -1.81151263	     -1.69434436	    -21.16132364	    -91.96658930	   -271.57118834	      0.00354527	     -0.04070396	     -0.48661829	     -0.09422994	     17.57376617	      1.01541705	      0.03200061	     -0.10586922	     -0.02277600	     -0.01121991	     22.83145903	     31.57545707	      0.00000000	      0.00000000	      0.00000000	      0.00000000	      0.05000000	      0.10000000	      0.05000000	      0.10000000	      0.05000000	      0.10000000	      0.05000000	      0.10000000
      0.43612424	   -254.44575407	   -480.13863009	    235.21856709	    367.58935410	     -0.03490334	      0.00000000	      0.05142313	      0.00000000	      0.01826671	      0.00000000	     -0.10000000	     -0.00000000	     -0.05000000	     -0.00000000	      0.00000000	     -0.00000000	     50.57971435	    128.36655062	      4.23041392	     -1.81681085	     -1.70414383	    -21.15693679	    -92.09077923	   -271.30516672	      0.00352665	     -0.04089950	     -0.48666138	     -0.09411285	     17.57423068	      1.01938057	      0.03195219	     -0.10589095	     -0.02278113	     -0.01125997	     22.84610007	     31.75092360	      0.00000000	      0.00000000	      0.00000000	      0.00000000	      0.05000000	      0.10000000	      0.05000000	      0.10000000	      0.05000000	      0.10000000	      0.05000000	      0.10000000
      0.43658136	   -254.66515107	   -480.13862577	    235.38672030	    368.24769414	     -0.03493604	      0.00000000	      0.05141090	      0.00000000	      0.01825452	      0.00000000	     -0.10000000	      0.00000000	     -0.05000000	      0.00000000	      0.00000000	      0.00000000	     50.63848358	    128.58446004	      4.22963676	     -1.82203898	     -1.71394067	    -21.15249814	    -92.21484618	   -271.03701055	      0.00350793	     -0.04113964	     -0.48670442	     -0.09404169	     17.57469697	      1.02316586	      0.03190376	     -0.10591430	     -0.02278628	     -0.01133219	     22.86082270	     31.92597118	      0.00000000	      0.00000000	      0.00000000	      0.00000000	      0.05000000	      0.10000000	      0.05000000	      0.10000000	      0.05000000	      0.10000000	      0.05000000	      0.10000000
      0.43703847	   -254.88454384	   -480.13864534	    235.55517326	    368.90770845	     -0.03496883	      0.00000000	      0.05139918	      0.00000000	      0.01824235	      0.00000000	     -0.10000000	     -0.00000000	     -0.05000000	     -0.00000000	      0.00000000	     -0.00000000	     50.69735038	    128.80231107	      4.22885699	     -1.82724708	     -1.72373463	    -21.14800192	    -92.33878647	   -270.76676409	      0.00348912	     -0.04131684	     -0.48674742	     -0.09393790	     17.57516500	      1.02688496	      0.03185532	     -0.10593722	     -0.02279147	     -0.01140320	     22.87562639	     32.10062726	      0.00000000	      0.00000000	      0.00000000	      0.00000000	      0.05000000	      0.10000000	      0.05000000	      0.10000000	      0.05000000	      0.10000000	      0.05000000	      0.10000000
      0.43749559	   -255.10394199	   -480.13864272	    235.72393410	    369.56943692	     -0.03500172	      0.00000000	      0.05138796	      0.00000000	      0.01823023	      0.00000000	     -0.10000000	     -0.00000000	     -0.05000000	     -0.00000000	      0.00000000	     -0.00000000	     50.75631732	    129.02016592	      4.22807459	     -1.83242742	     -1.73352611	    -21.14339436	    -92.46260457	   -270.49437383	      0.00347021	     -0.04153253	     -0.48679038	     -0.09382948	     17.57563473	      1.03047991	      0.03180687	     -0.10595474	     -0.02279668	     -0.01144483	     22.89051162	     32.27490269	      0.00000000	      0.00000000	      0.00000000	      0.00000000	      0.05000000	      0.10000000	      0.05000000	      0.10000000	      0.05000000	      0.10000000	      0.05000000	      0.10000000
      0.43795271	   -255.32334069	   -480.13862384	    235.89299989	    370.23285725	     -0.03503471	      0.00000000	      0.05137725	      0.00000000	      0.01821813	      0.00000000	     -0.10000000	      0.00000000	     -0.05000000	      0.00000000	      0.00000000	      0.00000000	     50.81538310	    129.23792219	      4.22728960	     -1.83755421	     -1.74331486	    -21.13873809	    -92.58629678	   -270.21984371	      0.00345121	     -0.04174468	     -0.48683329	     -0.09376214	     17.57610608	      1.03390994	      0.03175842	     -0.10598271	     -0.02280192	     -0.01152389	     22.90547787	     32.44874276	      0.00000000	      0.00000000	      0.00000000	      0.00000000	      0.05000000	      0.10000000	      0.05000000	      0.10000000	      0.05000000	      0.10000000	      0.05000000	      0.10000000
